<?xml version="1.0" encoding="UTF-8" standalone="no" ?>
<!DOCTYPE svg PUBLIC "-//W3C//DTD SVG 1.1//EN" "http://www.w3.org/Graphics/SVG/1.1/DTD/svg11.dtd">
<svg xmlns="http://www.w3.org/2000/svg" xmlns:xlink="http://www.w3.org/1999/xlink" version="1.1" width="1080" height="1080" viewBox="0 0 1080 1080" xml:space="preserve">
<desc>Created with Fabric.js 5.2.4</desc>
<defs>
</defs>
<rect x="0" y="0" width="100%" height="100%" fill="transparent"></rect>
<g transform="matrix(1 0 0 1 540 540)" id="94426c2f-597f-4b58-b92d-32bf9f50b8cc"  >
<rect style="stroke: none; stroke-width: 1; stroke-dasharray: none; stroke-linecap: butt; stroke-dashoffset: 0; stroke-linejoin: miter; stroke-miterlimit: 4; fill: rgb(255,255,255); fill-rule: nonzero; opacity: 1; visibility: hidden;" vector-effect="non-scaling-stroke"  x="-540" y="-540" rx="0" ry="0" width="1080" height="1080" />
</g>
<g transform="matrix(1 0 0 1 540 540)" id="1a99d6bf-d608-4d23-8867-617fe283e1ac"  >
</g>
<g transform="matrix(1 0 0 1 540 540)"  >
<g style="" vector-effect="non-scaling-stroke"   >
		<g transform="matrix(2.68 0 0 2.68 0 0)"  >
<path style="stroke: none; stroke-width: 1; stroke-dasharray: none; stroke-linecap: butt; stroke-dashoffset: 0; stroke-linejoin: miter; stroke-miterlimit: 4; fill: rgb(255,255,255); fill-rule: nonzero; opacity: 1;" vector-effect="non-scaling-stroke"  transform=" translate(-149.52, -149.52)" d="M 289.181 206.929 C 275.681 194.743 270.66999999999996 175.563 276.728 158.23000000000002 C 278.181 154.07100000000003 275.788 149.544 271.52500000000003 148.41000000000003 C 243.75500000000002 141.02300000000002 229.76800000000003 109.84200000000003 242.63200000000003 84.20900000000003 C 244.88600000000002 79.71700000000003 242.21300000000002 74.31100000000004 237.28400000000002 73.37200000000003 C 210.76300000000003 68.30300000000003 194.37 41.08400000000003 202.55 15.12100000000003 C 203.834 11.04700000000003 201.491 6.707000000000031 197.372 5.55100000000003 C 184.243 1.867 170.626 0 156.893 0 C 74.445 0 7.368 67.076 7.368 149.524 C 7.368 231.972 74.44399999999999 299.048 156.892 299.048 C 214.727 299.048 266.034 265.992 290.89 215.91899999999998 C 292.4 212.879 291.701 209.204 289.181 206.929 z M 156.893 283.899 C 82.798 283.899 22.519000000000005 223.618 22.519000000000005 149.525 C 22.519000000000005 75.43200000000002 82.799 15.15 156.893 15.15 C 166.79 15.15 176.619 16.228 186.204 18.36 C 181.08100000000002 47.793 198.15200000000002 76.14099999999999 225.614 85.862 C 215.887 115.729 230.865 148.59699999999998 260.359 160.61399999999998 C 256.255 179.884 261.849 199.71799999999996 274.81899999999996 213.97899999999998 C 251.758 256.098 207.229 283.899 156.893 283.899 z" stroke-linecap="round" />
</g>
		<g transform="matrix(2.68 0 0 2.68 -195.65 78.04)"  >
<path style="stroke: none; stroke-width: 1; stroke-dasharray: none; stroke-linecap: butt; stroke-dashoffset: 0; stroke-linejoin: miter; stroke-miterlimit: 4; fill: rgb(255,255,255); fill-rule: nonzero; opacity: 1;" vector-effect="non-scaling-stroke"  transform=" translate(-76.39, -178.7)" d="M 76.388 154.997 C 63.32000000000001 154.997 52.688 165.62800000000001 52.688 178.698 C 52.688 191.76500000000001 63.319 202.398 76.388 202.398 C 89.45500000000001 202.398 100.08800000000001 191.767 100.08800000000001 178.698 C 100.087 165.628 89.456 154.997 76.388 154.997 z M 76.388 187.247 C 71.673 187.247 67.83800000000001 183.412 67.83800000000001 178.697 C 67.83800000000001 173.982 71.673 170.14600000000002 76.388 170.14600000000002 C 81.102 170.14600000000002 84.938 173.98200000000003 84.938 178.697 C 84.938 183.41199999999998 81.102 187.247 76.388 187.247 z" stroke-linecap="round" />
</g>
		<g transform="matrix(2.68 0 0 2.68 -8.88 -157.48)"  >
<path style="stroke: none; stroke-width: 1; stroke-dasharray: none; stroke-linecap: butt; stroke-dashoffset: 0; stroke-linejoin: miter; stroke-miterlimit: 4; fill: rgb(255,255,255); fill-rule: nonzero; opacity: 1;" vector-effect="non-scaling-stroke"  transform=" translate(-146.2, -90.65)" d="M 173.224 90.655 C 173.224 75.755 161.10299999999998 63.634 146.20399999999998 63.634 C 131.30499999999998 63.634 119.18299999999998 75.755 119.18299999999998 90.655 C 119.18299999999998 105.553 131.30399999999997 117.675 146.20399999999998 117.675 C 161.104 117.674 173.224 105.553 173.224 90.655 z M 134.334 90.655 C 134.334 84.11 139.659 78.784 146.205 78.784 C 152.751 78.784 158.07500000000002 84.10900000000001 158.07500000000002 90.655 C 158.07500000000002 97.201 152.75000000000003 102.525 146.205 102.525 C 139.66 102.525 134.334 97.199 134.334 90.655 z" stroke-linecap="round" />
</g>
		<g transform="matrix(2.68 0 0 2.68 53.81 196.18)"  >
<path style="stroke: none; stroke-width: 1; stroke-dasharray: none; stroke-linecap: butt; stroke-dashoffset: 0; stroke-linejoin: miter; stroke-miterlimit: 4; fill: rgb(255,255,255); fill-rule: nonzero; opacity: 1;" vector-effect="non-scaling-stroke"  transform=" translate(-169.64, -222.86)" d="M 169.638 187.247 C 150.00400000000002 187.247 134.029 203.221 134.029 222.85700000000003 C 134.029 242.49200000000002 150.003 258.46700000000004 169.638 258.46700000000004 C 189.273 258.46700000000004 205.248 242.49300000000005 205.248 222.85700000000003 C 205.247 203.221 189.273 187.247 169.638 187.247 z M 169.638 243.315 C 158.357 243.315 149.18 234.137 149.18 222.855 C 149.18 211.57299999999998 158.358 202.39499999999998 169.638 202.39499999999998 C 180.919 202.39499999999998 190.098 211.57299999999998 190.098 222.855 C 190.098 234.137 180.92 243.315 169.638 243.315 z" stroke-linecap="round" />
</g>
</g>
</g>
</svg>